<svg version="1.1" id="Layer_1" xmlns="http://www.w3.org/2000/svg" xmlns:xlink="http://www.w3.org/1999/xlink" x="0px" y="0px"
	 width="100%" viewBox="0 0 577 433" enable-background="new 0 0 577 433" xml:space="preserve">
<path fill="#000000" opacity="1.000000" stroke="none" 
	d="
M304.000000,434.000000 
	C202.666687,434.000000 101.833382,434.000000 1.000054,434.000000 
	C1.000036,289.666718 1.000036,145.333450 1.000018,1.000132 
	C193.333237,1.000088 385.666473,1.000088 577.999756,1.000044 
	C577.999878,145.333191 577.999878,289.666382 577.999939,433.999786 
	C486.833344,434.000000 395.666656,434.000000 304.000000,434.000000 
M357.075256,206.005264 
	C357.159302,208.164703 357.315796,210.324127 357.316650,212.483597 
	C357.331757,251.116669 357.268005,289.750061 357.474609,328.382019 
	C357.487274,330.744537 359.055389,334.020721 360.932983,335.142639 
	C362.293304,335.955536 365.947754,334.532990 367.571472,333.023376 
	C374.587006,326.500671 381.234100,319.581482 388.010406,312.801697 
	C399.822937,300.983154 411.697571,289.225159 423.369873,277.269684 
	C425.077271,275.520874 426.840210,272.827972 426.848267,270.565735 
	C427.008850,225.446732 426.915009,180.326828 426.984222,134.449905 
	C420.640045,127.704910 414.402985,120.854980 407.923706,114.242393 
	C400.398651,106.562492 392.481110,99.261909 385.076263,91.471298 
	C379.733887,85.850540 377.033051,85.547440 371.688385,90.971901 
	C363.628448,99.152245 355.474182,107.239616 347.367554,115.374031 
	C328.231018,134.576202 309.098969,153.782806 289.305389,172.852142 
	C288.685699,172.299133 288.036377,171.775696 287.450562,171.188858 
	C260.663483,144.356033 233.876465,117.523132 207.104813,90.674904 
	C202.299835,85.856186 198.897278,86.002861 194.498825,90.517662 
	C181.880112,103.470177 169.034668,116.201553 156.371735,129.111465 
	C154.688828,130.827194 153.546677,133.073364 151.999939,135.985413 
	C151.904083,138.146591 151.725464,140.307755 151.724594,142.468964 
	C151.708008,183.795563 151.793335,225.122528 151.608856,266.448303 
	C151.586029,271.559937 153.153275,275.288971 156.697647,278.806366 
	C170.028107,292.035248 183.152161,305.471741 196.415665,318.768524 
	C201.695541,324.061646 206.999313,329.350220 212.608459,334.281128 
	C213.904343,335.420349 216.862518,335.893036 218.390656,335.201904 
	C219.943130,334.499756 220.952805,332.087402 221.669083,330.220276 
	C222.171860,328.909668 221.793091,327.257507 221.793152,325.757874 
	C221.794800,287.764069 221.779236,249.770264 221.835815,211.776535 
	C221.838928,209.691071 222.439865,207.606506 223.253220,206.063034 
	C244.595215,227.372437 265.928558,248.690536 287.317871,269.952362 
	C288.013062,270.643402 289.279236,270.760010 290.863373,270.876617 
	C298.700531,263.037445 306.523102,255.183578 314.378082,247.362289 
	C328.540436,233.260712 342.722260,219.178635 357.075256,206.005264 
z"/>
<path fill="#96B9A6" opacity="1.000000" stroke="none" 
	d="
M152.154099,135.073868 
	C153.546677,133.073364 154.688828,130.827194 156.371735,129.111465 
	C169.034668,116.201553 181.880112,103.470177 194.498825,90.517662 
	C198.897278,86.002861 202.299835,85.856186 207.104813,90.674904 
	C233.876465,117.523132 260.663483,144.356033 287.450562,171.188858 
	C288.036377,171.775696 288.685699,172.299133 289.644104,173.388580 
	C289.986877,192.541168 289.956604,211.157425 290.006439,229.773468 
	C290.043365,243.563919 290.184540,257.354095 290.279266,271.144409 
	C289.279236,270.760010 288.013062,270.643402 287.317871,269.952362 
	C265.928558,248.690536 244.595215,227.372437 222.884064,205.543640 
	C216.398697,198.916061 210.296021,192.794250 204.163712,186.702271 
	C186.833679,169.486252 169.491486,152.282471 152.154099,135.073868 
z"/>
<path fill="#E6CD9C" opacity="1.000000" stroke="none" 
	d="
M290.571320,271.010498 
	C290.184540,257.354095 290.043365,243.563919 290.006439,229.773468 
	C289.956604,211.157425 289.986877,192.541168 289.973938,173.456299 
	C309.098969,153.782806 328.231018,134.576202 347.367554,115.374031 
	C355.474182,107.239616 363.628448,99.152245 371.688385,90.971901 
	C377.033051,85.547440 379.733887,85.850540 385.076263,91.471298 
	C392.481110,99.261909 400.398651,106.562492 407.923706,114.242393 
	C414.402985,120.854980 420.640045,127.704910 426.638245,134.951523 
	C419.909332,141.781860 413.489136,148.073517 407.150696,154.446487 
	C390.380188,171.308334 373.645142,188.205383 356.895966,205.088409 
	C342.722260,219.178635 328.540436,233.260712 314.378082,247.362289 
	C306.523102,255.183578 298.700531,263.037445 290.571320,271.010498 
z"/>
<path fill="#1E7788" opacity="1.000000" stroke="none" 
	d="
M152.077026,135.529633 
	C169.491486,152.282471 186.833679,169.486252 204.163712,186.702271 
	C210.296021,192.794250 216.398697,198.916061 222.638733,205.272888 
	C222.439865,207.606506 221.838928,209.691071 221.835815,211.776535 
	C221.779236,249.770264 221.794800,287.764069 221.793152,325.757874 
	C221.793091,327.257507 222.171860,328.909668 221.669083,330.220276 
	C220.952805,332.087402 219.943130,334.499756 218.390656,335.201904 
	C216.862518,335.893036 213.904343,335.420349 212.608459,334.281128 
	C206.999313,329.350220 201.695541,324.061646 196.415665,318.768524 
	C183.152161,305.471741 170.028107,292.035248 156.697647,278.806366 
	C153.153275,275.288971 151.586029,271.559937 151.608856,266.448303 
	C151.793335,225.122528 151.708008,183.795563 151.724594,142.468964 
	C151.725464,140.307755 151.904083,138.146591 152.077026,135.529633 
z"/>
<path fill="#E24B5F" opacity="1.000000" stroke="none" 
	d="
M356.985596,205.546844 
	C373.645142,188.205383 390.380188,171.308334 407.150696,154.446487 
	C413.489136,148.073517 419.909332,141.781860 426.582458,135.330109 
	C426.915009,180.326828 427.008850,225.446732 426.848267,270.565735 
	C426.840210,272.827972 425.077271,275.520874 423.369873,277.269684 
	C411.697571,289.225159 399.822937,300.983154 388.010406,312.801697 
	C381.234100,319.581482 374.587006,326.500671 367.571472,333.023376 
	C365.947754,334.532990 362.293304,335.955536 360.932983,335.142639 
	C359.055389,334.020721 357.487274,330.744537 357.474609,328.382019 
	C357.268005,289.750061 357.331757,251.116669 357.316650,212.483597 
	C357.315796,210.324127 357.159302,208.164703 356.985596,205.546844 
z"/>
</svg>